<svg width="834" height="151" viewBox="0 0 834 151" fill="none" xmlns="http://www.w3.org/2000/svg">
<g clip-path="url(#clip0_73_211)" filter="url(#filter0_d_73_211)">
<path d="M487.007 0L486.945 0.145589L462.227 56.2911L424.335 142.386H393.03L449.832 13.259L450.819 11.0336C452.16 8.205 453.469 5.4908 456.014 3.44215C456.336 3.18217 456.658 2.94299 457.022 2.7038C457.022 2.7038 457.043 2.7038 457.043 2.683C460.295 0.571958 463.724 0.114392 467.298 0.0311977C467.547 0 467.765 0 468.015 0H487.007Z" fill="white"/>
<path d="M302.399 28.4835H271.094L215.03 85.5026L208.464 28.6187L208.474 28.5979L208.536 28.4523H189.543C189.305 28.4523 189.086 28.4523 188.837 28.4731C188.546 28.4731 188.266 28.5043 187.975 28.5147C187.777 28.5251 187.569 28.5355 187.372 28.5459C187.05 28.5667 186.728 28.5875 186.406 28.6187C186.094 28.6499 185.782 28.6915 185.481 28.7227C185.284 28.7539 185.086 28.7643 184.889 28.7955C184.037 28.9307 183.195 29.1387 182.364 29.3883C182.333 29.3987 182.312 29.3987 182.281 29.4091C181.024 29.8042 179.787 30.3346 178.582 31.1249C178.582 31.1457 178.541 31.1457 178.541 31.1457C178.198 31.3849 177.876 31.6241 177.533 31.8841C174.987 33.9327 173.699 36.6469 172.348 39.4755L127.079 142.386H158.384L183.663 84.9722L183.746 85.721L186.998 113.893H218.303V113.882H218.407L245.763 86.0641L221.025 142.366H252.33L302.399 28.4835Z" fill="white"/>
<path d="M709.259 29.0659H645.412C641.017 29.0659 636.758 29.1907 632.789 31.7801C628.809 34.3903 626.991 38.2484 625.225 42.2729L618.482 57.5702V57.591L622.658 65.1513L634.139 86.0537L639.334 95.5379L640.217 97.1497L645.88 107.435L649.776 114.527H602.855L590.325 143.021H654.171C658.566 143.021 662.826 142.917 666.795 140.307C670.265 138.04 672.094 134.805 673.683 131.342C673.746 131.197 673.808 131.082 673.86 130.958C674.016 130.573 674.203 130.219 674.359 129.835L681.06 114.527L676.904 106.967L670.618 95.5275L665.423 86.0433L653.662 64.6833L653.236 63.8826L649.766 57.5702H696.749L709.259 29.0659Z" fill="white"/>
<path d="M403.587 28.5459H339.74C335.346 28.5459 331.086 28.6707 327.117 31.2601C323.137 33.8703 321.319 37.7285 319.553 41.753L312.81 57.0503V57.0711L344.115 113.997H297.194L284.663 142.49H348.51C352.904 142.49 357.164 142.386 361.133 139.776C364.604 137.509 366.432 134.275 368.022 130.812C368.084 130.666 375.409 113.997 375.409 113.997L371.253 106.436L344.104 57.0399H391.088L403.587 28.5459Z" fill="white"/>
<path d="M517.519 29.1387C514.149 29.1387 510.883 29.2219 507.846 31.2289C504.777 33.2152 503.398 36.1894 502.04 39.2675C502.04 39.2675 465.256 123.085 463.659 126.736C462.114 130.251 462.457 134.327 464.54 137.551C466.645 140.764 470.211 142.719 474.058 142.719C481.232 142.719 507.96 142.719 507.96 142.719C511.329 142.719 514.595 142.636 517.633 140.629C519.592 139.35 520.867 137.655 521.894 135.793L518.742 142.99H549.98L599.848 29.0867L517.519 29.1387ZM548.497 69.4878L537.642 94.2484C537.642 94.2484 537.632 94.2588 537.632 94.2692L536.097 97.7529L532.199 106.644C531.494 108.235 530.779 109.774 529.203 110.804C527.627 111.833 525.948 111.885 524.206 111.885H498.919L505.109 97.7529L515.964 72.9923C515.964 72.9923 515.974 72.9819 515.974 72.9715L517.498 69.4878L521.396 60.5964C522.101 59.0053 522.816 57.4662 524.392 56.4367C525.968 55.4072 527.648 55.3552 529.39 55.3552H539.187H545.625H554.676L548.497 69.4878Z" fill="white"/>
<path d="M828.14 33.704C826.052 30.4906 822.457 28.5355 818.623 28.5355H772.928L785.427 0.13519L785.489 0H766.497C766.258 0 766.04 0 765.79 0.0207985C762.216 0.103992 758.787 0.561559 755.535 2.67261C755.535 2.6934 755.515 2.6934 755.515 2.6934C755.151 2.93259 754.829 3.17177 754.507 3.43175C751.961 5.4804 750.652 8.19461 749.312 11.0232L748.325 13.2486L691.523 142.376H722.828L758.787 60.6588C758.902 60.4612 759.006 60.2532 759.12 60.0556C759.598 59.2965 760.2 58.6309 761.032 58.0902C762.6 57.0503 764.284 57.0087 766.029 57.0087H792.243L754.694 142.47H785.999L823.548 57.0191C823.548 57.0191 824.213 55.5112 825.231 53.2233C826.26 50.8939 827.621 47.7741 829.044 44.5192C830.592 40.9938 830.249 36.9381 828.14 33.704Z" fill="white"/>
<path d="M147.849 28.5251H116.648H85.4155V28.5043H66.4227C66.1838 28.5043 65.9656 28.5043 65.7162 28.5251C62.1421 28.6083 58.7134 29.0659 55.4614 31.1769C55.4614 31.1977 55.4406 31.1977 55.4406 31.1977C55.0769 31.4369 54.7548 31.6761 54.4328 31.9361C51.8872 33.9847 50.5781 36.6989 49.2378 39.5275L48.2507 41.7634L4 142.407H35.3049L47.7936 114.038H79.0777L79.0361 114.142L66.6098 142.418H98.0497L110.559 114.142L147.942 28.5355H147.849V28.5251ZM91.5768 85.5338H60.3135L71.2229 60.7732C71.2437 60.7316 71.2645 60.69 71.2852 60.6692C71.8047 59.7437 72.4489 58.9013 73.436 58.2566C75.0256 57.227 76.7088 57.175 78.4543 57.175H104.055L91.5768 85.5338Z" fill="white"/>
</g>
<defs>
<filter id="filter0_d_73_211" x="0" y="0" width="834" height="151" filterUnits="userSpaceOnUse" color-interpolation-filters="sRGB">
<feFlood flood-opacity="0" result="BackgroundImageFix"/>
<feColorMatrix in="SourceAlpha" type="matrix" values="0 0 0 0 0 0 0 0 0 0 0 0 0 0 0 0 0 0 127 0" result="hardAlpha"/>
<feOffset dy="4"/>
<feGaussianBlur stdDeviation="2"/>
<feComposite in2="hardAlpha" operator="out"/>
<feColorMatrix type="matrix" values="0 0 0 0 0 0 0 0 0 0 0 0 0 0 0 0 0 0 0.25 0"/>
<feBlend mode="normal" in2="BackgroundImageFix" result="effect1_dropShadow_73_211"/>
<feBlend mode="normal" in="SourceGraphic" in2="effect1_dropShadow_73_211" result="shape"/>
</filter>
<clipPath id="clip0_73_211">
<rect width="826" height="143" fill="white" transform="translate(4)"/>
</clipPath>
</defs>
</svg>
