<svg width="1277" height="222" viewBox="0 0 1277 222" fill="none" xmlns="http://www.w3.org/2000/svg">
<path d="M744.901 0L744.805 0.225002L706.531 86.9954L647.858 220.052H599.385L687.338 20.4912L688.867 17.0519C690.942 12.6805 692.969 8.48578 696.911 5.31969C697.409 4.9179 697.908 4.54825 698.471 4.17861C698.471 4.17861 698.503 4.17861 698.503 4.14646C703.539 0.883936 708.848 0.176787 714.382 0.0482147C714.768 0 715.106 0 715.492 0H744.901Z" fill="url(#paint0_linear_81_7)" fill-opacity="0.8"/>
<path d="M459.049 44.0482H410.576L323.764 132.169L313.597 44.2571L313.613 44.225L313.709 44H284.3C283.93 44 283.593 44 283.206 44.0321C282.756 44.0321 282.322 44.0804 281.871 44.0964C281.565 44.1125 281.244 44.1286 280.938 44.1446C280.439 44.1768 279.941 44.2089 279.442 44.2571C278.959 44.3054 278.477 44.3696 278.01 44.4179C277.704 44.4661 277.399 44.4821 277.093 44.5304C275.774 44.7393 274.471 45.0607 273.184 45.4464C273.135 45.4625 273.103 45.4625 273.055 45.4786C271.108 46.0893 269.194 46.909 267.327 48.1304C267.327 48.1625 267.263 48.1625 267.263 48.1625C266.732 48.5322 266.234 48.9018 265.703 49.3036C261.761 52.4697 259.766 56.6644 257.675 61.0359L187.579 220.08H236.052L275.195 131.349L275.323 132.506L280.359 176.044H328.832V176.028H328.993L371.353 133.036L333.047 220.048H381.52L459.049 44.0482Z" fill="url(#paint1_linear_81_7)" fill-opacity="0.8"/>
<path d="M1089.04 44.9199H990.18C983.375 44.9199 976.778 45.1128 970.633 49.1146C964.471 53.1486 961.656 59.1111 958.921 65.3308L948.479 88.9721V89.0042L954.947 100.688L972.724 132.992L980.768 147.649L982.136 150.14L990.904 166.035L996.937 176.996H924.283L904.881 221.032H1003.74C1010.55 221.032 1017.14 220.871 1023.29 216.837C1028.66 213.334 1031.49 208.336 1033.96 202.984C1034.05 202.759 1034.15 202.582 1034.23 202.389C1034.47 201.794 1034.76 201.248 1035 200.653L1045.38 176.996L1038.94 165.312L1029.21 147.633L1021.17 132.976L1002.95 99.965L1002.29 98.7275L996.921 88.9721H1069.67L1089.04 44.9199Z" fill="url(#paint2_linear_81_7)" fill-opacity="0.8"/>
<path d="M615.73 44.1165H516.869C510.064 44.1165 503.468 44.3093 497.322 48.3111C491.161 52.3451 488.345 58.3076 485.61 64.5273L475.169 88.1686V88.2007L523.642 176.176H450.989L431.587 220.213H530.448C537.253 220.213 543.849 220.052 549.995 216.018C555.368 212.514 558.199 207.516 560.661 202.164C560.757 201.939 572.1 176.176 572.1 176.176L565.664 164.492L523.626 88.1525H596.376L615.73 44.1165Z" fill="url(#paint3_linear_81_7)" fill-opacity="0.8"/>
<path d="M792.882 44.0804C787.665 44.0804 782.608 44.2089 777.904 47.3107C773.152 50.3804 771.017 54.9769 768.914 59.7341C768.914 59.7341 711.957 189.271 709.484 194.912C707.093 200.344 707.622 206.644 710.849 211.626C714.108 216.592 719.63 219.614 725.586 219.614C736.695 219.614 778.081 219.614 778.081 219.614C783.298 219.614 788.355 219.485 793.059 216.384C796.093 214.407 798.067 211.787 799.657 208.91L794.776 220.032H843.145L920.362 44L792.882 44.0804ZM840.85 106.438L824.042 144.704C824.042 144.704 824.026 144.72 824.026 144.737L821.65 150.121L815.614 163.862C814.522 166.321 813.414 168.699 810.974 170.29C808.534 171.881 805.933 171.962 803.236 171.962H764.082L773.666 150.121L790.474 111.854C790.474 111.854 790.49 111.838 790.49 111.822L792.85 106.438L798.886 92.6968C799.978 90.2379 801.085 87.8593 803.525 86.2682C805.966 84.6771 808.566 84.5968 811.263 84.5968H826.434H836.403H850.417L840.85 106.438Z" fill="url(#paint4_linear_81_7)" fill-opacity="0.8"/>
<path d="M1273.12 52.0879C1269.89 47.1218 1264.32 44.1004 1258.38 44.1004H1187.63L1206.98 0.20893L1207.08 0H1177.67C1177.3 0 1176.96 0 1176.58 0.0321431C1171.04 0.160716 1165.73 0.867864 1160.7 4.13039C1160.7 4.16253 1160.66 4.16253 1160.66 4.16253C1160.1 4.53218 1159.6 4.90183 1159.1 5.30361C1155.16 8.46971 1153.14 12.6644 1151.06 17.0359L1149.53 20.4752L1061.58 220.036H1110.05L1165.73 93.7454C1165.91 93.4401 1166.07 93.1186 1166.25 92.8133C1166.99 91.64 1167.92 90.6115 1169.21 89.7757C1171.64 88.1686 1174.24 88.1043 1176.95 88.1043H1217.54L1159.39 220.18H1207.87L1266.01 88.1204C1266.01 88.1204 1267.04 85.79 1268.62 82.2542C1270.21 78.6542 1272.32 73.8327 1274.52 68.8024C1276.92 63.3541 1276.39 57.0862 1273.12 52.0879Z" fill="url(#paint5_linear_81_7)" fill-opacity="0.8"/>
<path d="M219.739 44.0844H171.427H123.066V44.0522H93.657C93.287 44.0522 92.9491 44.0522 92.563 44.0844C87.0287 44.213 81.7197 44.9201 76.6841 48.1826C76.6841 48.2148 76.6519 48.2148 76.6519 48.2148C76.0889 48.5844 75.5901 48.9541 75.0914 49.3559C71.1498 52.522 69.1227 56.7166 67.0474 61.0881L65.519 64.5435L-3 220.084H45.4733L64.8111 176.241H113.252L113.188 176.402L93.9466 220.1H142.629L161.999 176.402L219.884 44.1005H219.739V44.0844ZM132.606 132.189H84.1972L101.09 93.9223C101.122 93.858 101.154 93.7937 101.186 93.7616C101.991 92.3312 102.988 91.0294 104.516 90.033C106.978 88.4419 109.584 88.3615 112.287 88.3615H151.928L132.606 132.189Z" fill="url(#paint6_linear_81_7)" fill-opacity="0.8"/>
<defs>
<linearGradient id="paint0_linear_81_7" x1="672.143" y1="0" x2="672.143" y2="220.052" gradientUnits="userSpaceOnUse">
<stop stop-color="#862BFC"/>
<stop offset="1" stop-color="#862BFC" stop-opacity="0"/>
</linearGradient>
<linearGradient id="paint1_linear_81_7" x1="323.314" y1="44" x2="323.314" y2="220.08" gradientUnits="userSpaceOnUse">
<stop stop-color="#862BFC"/>
<stop offset="1" stop-color="#862BFC" stop-opacity="0"/>
</linearGradient>
<linearGradient id="paint2_linear_81_7" x1="996.961" y1="44.9199" x2="996.961" y2="221.032" gradientUnits="userSpaceOnUse">
<stop stop-color="#862BFC"/>
<stop offset="1" stop-color="#862BFC" stop-opacity="0"/>
</linearGradient>
<linearGradient id="paint3_linear_81_7" x1="523.658" y1="44.1165" x2="523.658" y2="220.213" gradientUnits="userSpaceOnUse">
<stop stop-color="#862BFC"/>
<stop offset="1" stop-color="#862BFC" stop-opacity="0"/>
</linearGradient>
<linearGradient id="paint4_linear_81_7" x1="814.181" y1="44" x2="814.181" y2="220.032" gradientUnits="userSpaceOnUse">
<stop stop-color="#862BFC"/>
<stop offset="1" stop-color="#862BFC" stop-opacity="0"/>
</linearGradient>
<linearGradient id="paint5_linear_81_7" x1="1168.79" y1="0" x2="1168.79" y2="220.18" gradientUnits="userSpaceOnUse">
<stop stop-color="#862BFC"/>
<stop offset="1" stop-color="#862BFC" stop-opacity="0"/>
</linearGradient>
<linearGradient id="paint6_linear_81_7" x1="108.442" y1="44.0522" x2="108.442" y2="220.1" gradientUnits="userSpaceOnUse">
<stop stop-color="#862BFC"/>
<stop offset="1" stop-color="#862BFC" stop-opacity="0"/>
</linearGradient>
</defs>
</svg>
