<svg width="116" height="72" viewBox="0 0 116 72" fill="none" xmlns="http://www.w3.org/2000/svg">
<circle cx="12.5" cy="59.5" r="12" fill="#F98536" fill-opacity="0.3" stroke="white"/>
<circle cx="12.5" cy="59.5" r="6.5" fill="#F98536"/>
<path d="M11 5C11 2.23858 13.2386 0 16 0H110.5C113.261 0 115.5 2.23858 115.5 5V29C115.5 31.7614 113.261 34 110.5 34H19.2006C18.0979 34 17.0261 34.3645 16.1521 35.0369L11 39V34V5Z" fill="#F98536"/>
<path d="M40.2012 18.5059L41.4199 13.6602H42.5039L40.6582 20H39.7793L38.2383 15.1953L36.7383 20H35.8594L34.0195 13.6602H35.0977L36.3457 18.4062L37.8223 13.6602H38.6953L40.2012 18.5059ZM46.2422 20.1172C45.3828 20.1172 44.6836 19.8359 44.1445 19.2734C43.6055 18.707 43.3359 17.9512 43.3359 17.0059V16.8066C43.3359 16.1777 43.4551 15.6172 43.6934 15.125C43.9355 14.6289 44.2715 14.2422 44.7012 13.9648C45.1348 13.6836 45.6035 13.543 46.1074 13.543C46.9316 13.543 47.5723 13.8145 48.0293 14.3574C48.4863 14.9004 48.7148 15.6777 48.7148 16.6895V17.1406H44.4199C44.4355 17.7656 44.6172 18.2715 44.9648 18.6582C45.3164 19.041 45.7617 19.2324 46.3008 19.2324C46.6836 19.2324 47.0078 19.1543 47.2734 18.998C47.5391 18.8418 47.7715 18.6348 47.9707 18.377L48.6328 18.8926C48.1016 19.709 47.3047 20.1172 46.2422 20.1172ZM46.1074 14.4336C45.6699 14.4336 45.3027 14.5938 45.0059 14.9141C44.709 15.2305 44.5254 15.6758 44.4551 16.25H47.6309V16.168C47.5996 15.6172 47.4512 15.1914 47.1855 14.8906C46.9199 14.5859 46.5605 14.4336 46.1074 14.4336ZM56.8652 20C56.8027 19.875 56.752 19.6523 56.7129 19.332C56.209 19.8555 55.6074 20.1172 54.9082 20.1172C54.2832 20.1172 53.7695 19.9414 53.3672 19.5898C52.9688 19.2344 52.7695 18.7852 52.7695 18.2422C52.7695 17.582 53.0195 17.0703 53.5195 16.707C54.0234 16.3398 54.7305 16.1562 55.6406 16.1562H56.6953V15.6582C56.6953 15.2793 56.582 14.9785 56.3555 14.7559C56.1289 14.5293 55.7949 14.416 55.3535 14.416C54.9668 14.416 54.6426 14.5137 54.3809 14.709C54.1191 14.9043 53.9883 15.1406 53.9883 15.418H52.8984C52.8984 15.1016 53.0098 14.7969 53.2324 14.5039C53.459 14.207 53.7637 13.9727 54.1465 13.8008C54.5332 13.6289 54.957 13.543 55.418 13.543C56.1484 13.543 56.7207 13.7266 57.1348 14.0938C57.5488 14.457 57.7637 14.959 57.7793 15.5996V18.5176C57.7793 19.0996 57.8535 19.5625 58.002 19.9062V20H56.8652ZM55.0664 19.1738C55.4062 19.1738 55.7285 19.0859 56.0332 18.9102C56.3379 18.7344 56.5586 18.5059 56.6953 18.2246V16.9238H55.8457C54.5176 16.9238 53.8535 17.3125 53.8535 18.0898C53.8535 18.4297 53.9668 18.6953 54.1934 18.8867C54.4199 19.0781 54.7109 19.1738 55.0664 19.1738ZM62.543 14.6328C62.3789 14.6055 62.2012 14.5918 62.0098 14.5918C61.2988 14.5918 60.8164 14.8945 60.5625 15.5V20H59.4785V13.6602H60.5332L60.5508 14.3926C60.9062 13.8262 61.4102 13.543 62.0625 13.543C62.2734 13.543 62.4336 13.5703 62.543 13.625V14.6328ZM66.0586 20.1172C65.1992 20.1172 64.5 19.8359 63.9609 19.2734C63.4219 18.707 63.1523 17.9512 63.1523 17.0059V16.8066C63.1523 16.1777 63.2715 15.6172 63.5098 15.125C63.752 14.6289 64.0879 14.2422 64.5176 13.9648C64.9512 13.6836 65.4199 13.543 65.9238 13.543C66.748 13.543 67.3887 13.8145 67.8457 14.3574C68.3027 14.9004 68.5312 15.6777 68.5312 16.6895V17.1406H64.2363C64.252 17.7656 64.4336 18.2715 64.7812 18.6582C65.1328 19.041 65.5781 19.2324 66.1172 19.2324C66.5 19.2324 66.8242 19.1543 67.0898 18.998C67.3555 18.8418 67.5879 18.6348 67.7871 18.377L68.4492 18.8926C67.918 19.709 67.1211 20.1172 66.0586 20.1172ZM65.9238 14.4336C65.4863 14.4336 65.1191 14.5938 64.8223 14.9141C64.5254 15.2305 64.3418 15.6758 64.2715 16.25H67.4473V16.168C67.416 15.6172 67.2676 15.1914 67.002 14.8906C66.7363 14.5859 66.377 14.4336 65.9238 14.4336ZM73.8516 14.4277C74.332 13.8379 74.957 13.543 75.7266 13.543C77.0664 13.543 77.7422 14.2988 77.7539 15.8105V20H76.6699V15.8047C76.666 15.3477 76.5605 15.0098 76.3535 14.791C76.1504 14.5723 75.832 14.4629 75.3984 14.4629C75.0469 14.4629 74.7383 14.5566 74.4727 14.7441C74.207 14.9316 74 15.1777 73.8516 15.4824V20H72.7676V11H73.8516V14.4277ZM82.0078 20.1172C81.1484 20.1172 80.4492 19.8359 79.9102 19.2734C79.3711 18.707 79.1016 17.9512 79.1016 17.0059V16.8066C79.1016 16.1777 79.2207 15.6172 79.459 15.125C79.7012 14.6289 80.0371 14.2422 80.4668 13.9648C80.9004 13.6836 81.3691 13.543 81.873 13.543C82.6973 13.543 83.3379 13.8145 83.7949 14.3574C84.252 14.9004 84.4805 15.6777 84.4805 16.6895V17.1406H80.1855C80.2012 17.7656 80.3828 18.2715 80.7305 18.6582C81.082 19.041 81.5273 19.2324 82.0664 19.2324C82.4492 19.2324 82.7734 19.1543 83.0391 18.998C83.3047 18.8418 83.5371 18.6348 83.7363 18.377L84.3984 18.8926C83.8672 19.709 83.0703 20.1172 82.0078 20.1172ZM81.873 14.4336C81.4355 14.4336 81.0684 14.5938 80.7715 14.9141C80.4746 15.2305 80.291 15.6758 80.2207 16.25H83.3965V16.168C83.3652 15.6172 83.2168 15.1914 82.9512 14.8906C82.6855 14.5859 82.3262 14.4336 81.873 14.4336ZM88.8047 14.6328C88.6406 14.6055 88.4629 14.5918 88.2715 14.5918C87.5605 14.5918 87.0781 14.8945 86.8242 15.5V20H85.7402V13.6602H86.7949L86.8125 14.3926C87.168 13.8262 87.6719 13.543 88.3242 13.543C88.5352 13.543 88.6953 13.5703 88.8047 13.625V14.6328ZM92.3203 20.1172C91.4609 20.1172 90.7617 19.8359 90.2227 19.2734C89.6836 18.707 89.4141 17.9512 89.4141 17.0059V16.8066C89.4141 16.1777 89.5332 15.6172 89.7715 15.125C90.0137 14.6289 90.3496 14.2422 90.7793 13.9648C91.2129 13.6836 91.6816 13.543 92.1855 13.543C93.0098 13.543 93.6504 13.8145 94.1074 14.3574C94.5645 14.9004 94.793 15.6777 94.793 16.6895V17.1406H90.498C90.5137 17.7656 90.6953 18.2715 91.043 18.6582C91.3945 19.041 91.8398 19.2324 92.3789 19.2324C92.7617 19.2324 93.0859 19.1543 93.3516 18.998C93.6172 18.8418 93.8496 18.6348 94.0488 18.377L94.7109 18.8926C94.1797 19.709 93.3828 20.1172 92.3203 20.1172ZM92.1855 14.4336C91.748 14.4336 91.3809 14.5938 91.084 14.9141C90.7871 15.2305 90.6035 15.6758 90.5332 16.25H93.709V16.168C93.6777 15.6172 93.5293 15.1914 93.2637 14.8906C92.998 14.5859 92.6387 14.4336 92.1855 14.4336Z" fill="white"/>
</svg>
