<svg width="222" height="46" viewBox="0 0 222 46" fill="none" xmlns="http://www.w3.org/2000/svg">
<g clip-path="url(#clip0_417_525)" filter="url(#filter0_d_417_525)">
<path d="M129.137 0L129.121 0.0386881L122.717 14.9585L112.9 37.837H104.79L119.506 3.52338L119.762 2.932C120.109 2.18035 120.448 1.45909 121.108 0.914697C121.191 0.845611 121.275 0.782052 121.369 0.718493C121.369 0.718493 121.374 0.718493 121.374 0.712966C122.217 0.151989 123.105 0.0303978 124.031 0.00829031C124.096 0 124.152 0 124.217 0H129.137Z" fill="white"/>
<path d="M81.3092 7.56884H73.1987L58.6736 22.7208L56.9724 7.60476L56.9751 7.59923L56.9912 7.56055H52.0706C52.0087 7.56055 51.9521 7.56055 51.8875 7.56607C51.8122 7.56607 51.7395 7.57436 51.6641 7.57713C51.613 7.57989 51.5591 7.58265 51.508 7.58542C51.4245 7.59094 51.3411 7.59647 51.2576 7.60476C51.1769 7.61305 51.0961 7.62411 51.0181 7.6324C50.9669 7.64069 50.9158 7.64345 50.8646 7.65174C50.6439 7.68766 50.4259 7.74293 50.2105 7.80926C50.2025 7.81202 50.1971 7.81202 50.189 7.81478C49.8633 7.91979 49.543 8.06073 49.2307 8.27075C49.2307 8.27628 49.2199 8.27628 49.2199 8.27628C49.1311 8.33984 49.0477 8.40339 48.9588 8.47248C48.2993 9.01688 47.9655 9.73813 47.6156 10.4898L35.8873 37.8367H43.9978L50.547 22.5798L50.5685 22.7788L51.4111 30.2649H59.5216V30.2622H59.5485L66.636 22.87L60.2268 37.8312H68.3373L81.3092 7.56884Z" fill="white"/>
<path d="M186.718 7.72363H170.177C169.038 7.72363 167.935 7.75679 166.906 8.44489C165.876 9.13851 165.404 10.1637 164.947 11.2332L163.2 15.2982V15.3037L164.282 17.3128L167.256 22.8673L168.602 25.3875L168.831 25.8158L170.298 28.5489L171.308 30.4335H159.151L155.905 38.0054H172.446C173.585 38.0054 174.689 37.9777 175.717 37.2841C176.616 36.6817 177.09 35.8223 177.502 34.902C177.518 34.8633 177.534 34.8329 177.547 34.7998C177.588 34.6975 177.636 34.6036 177.676 34.5013L179.413 30.4335L178.336 28.4245L176.707 25.3848L175.361 22.8645L172.314 17.1884L172.204 16.9756L171.305 15.2982H183.477L186.718 7.72363Z" fill="white"/>
<path d="M107.525 7.58594H90.9836C89.845 7.58594 88.7413 7.6191 87.713 8.30719C86.6821 9.00082 86.211 10.0261 85.7534 11.0955L84.0064 15.1605V15.166L92.1169 30.2931H79.9606L76.7142 37.8649H93.2555C94.3941 37.8649 95.4978 37.8373 96.5261 37.1436C97.4251 36.5412 97.8989 35.6818 98.3107 34.7616C98.3269 34.7229 100.225 30.2931 100.225 30.2931L99.1479 28.2841L92.1142 15.1577H104.287L107.525 7.58594Z" fill="white"/>
<path d="M137.042 7.74331C136.169 7.74331 135.323 7.76542 134.536 8.29876C133.741 8.82658 133.384 9.61692 133.032 10.4349C133.032 10.4349 123.502 32.7082 123.088 33.6782C122.688 34.6122 122.777 35.6955 123.317 36.5521C123.862 37.406 124.786 37.9256 125.783 37.9256C127.641 37.9256 134.566 37.9256 134.566 37.9256C135.439 37.9256 136.285 37.9034 137.072 37.3701C137.58 37.0302 137.91 36.5798 138.176 36.0851L137.359 37.9974H145.452L158.372 7.72949L137.042 7.74331ZM145.068 18.4654L142.256 25.0452C142.256 25.0452 142.253 25.0479 142.253 25.0507L141.856 25.9765L140.846 28.3392C140.663 28.762 140.478 29.171 140.07 29.4446C139.661 29.7181 139.226 29.732 138.775 29.732H132.224L133.827 25.9765L136.639 19.3967C136.639 19.3967 136.642 19.394 136.642 19.3912L137.037 18.4654L138.047 16.1027C138.23 15.6799 138.415 15.2709 138.823 14.9973C139.232 14.7237 139.667 14.7099 140.118 14.7099H142.656H144.324H146.669L145.068 18.4654Z" fill="white"/>
<path d="M217.518 8.9563C216.977 8.10239 216.046 7.58287 215.052 7.58287H203.214L206.452 0.0359247L206.468 0H201.548C201.486 0 201.429 0 201.365 0.00552687C200.439 0.0276344 199.55 0.149226 198.708 0.710203C198.708 0.71573 198.702 0.71573 198.702 0.71573C198.608 0.779289 198.525 0.842848 198.441 0.911934C197.782 1.45633 197.443 2.17759 197.095 2.92924L196.84 3.52062L182.123 37.8342H190.234L199.55 16.1191C199.58 16.0666 199.607 16.0113 199.636 15.9588C199.76 15.7571 199.916 15.5803 200.132 15.4366C200.538 15.1602 200.974 15.1492 201.426 15.1492H208.218L198.49 37.8591H206.6L216.328 15.1519C216.328 15.1519 216.501 14.7512 216.764 14.1433C217.031 13.5243 217.384 12.6952 217.752 11.8303C218.153 10.8935 218.065 9.81572 217.518 8.9563Z" fill="white"/>
<path d="M41.2683 7.57999H33.1848H25.0931V7.57446H20.1725C20.1106 7.57446 20.054 7.57446 19.9894 7.57999C19.0634 7.6021 18.1751 7.72369 17.3326 8.28467C17.3326 8.29019 17.3272 8.29019 17.3272 8.29019C17.233 8.35375 17.1496 8.41731 17.0661 8.4864C16.4066 9.03079 16.0674 9.75205 15.7202 10.5037L15.4645 11.0978L4 37.8424H12.1105L15.346 30.3037H23.4511L23.4404 30.3313L20.2209 37.8451H28.3664L31.6073 30.3313L41.2925 7.58275H41.2683V7.57999ZM26.6894 22.7291H18.5897L21.4161 16.1494C21.4215 16.1383 21.4269 16.1273 21.4323 16.1218C21.5668 15.8758 21.7337 15.652 21.9895 15.4806C22.4013 15.2071 22.8374 15.1932 23.2896 15.1932H29.9223L26.6894 22.7291Z" fill="white"/>
</g>
<defs>
<filter id="filter0_d_417_525" x="0" y="0" width="222" height="46" filterUnits="userSpaceOnUse" color-interpolation-filters="sRGB">
<feFlood flood-opacity="0" result="BackgroundImageFix"/>
<feColorMatrix in="SourceAlpha" type="matrix" values="0 0 0 0 0 0 0 0 0 0 0 0 0 0 0 0 0 0 127 0" result="hardAlpha"/>
<feOffset dy="4"/>
<feGaussianBlur stdDeviation="2"/>
<feComposite in2="hardAlpha" operator="out"/>
<feColorMatrix type="matrix" values="0 0 0 0 0 0 0 0 0 0 0 0 0 0 0 0 0 0 0.25 0"/>
<feBlend mode="normal" in2="BackgroundImageFix" result="effect1_dropShadow_417_525"/>
<feBlend mode="normal" in="SourceGraphic" in2="effect1_dropShadow_417_525" result="shape"/>
</filter>
<clipPath id="clip0_417_525">
<rect width="214" height="38" fill="white" transform="translate(4)"/>
</clipPath>
</defs>
</svg>
