<svg width="1085" height="726" viewBox="0 0 1085 726" fill="none" xmlns="http://www.w3.org/2000/svg">
<path d="M1.3356 725.42L1.65499 724.666L81.1821 544.181L161 363.029V362.971L240.817 181.79L320.664 0.579834" stroke="#862BFC" stroke-miterlimit="10"/>
<path d="M22.5312 725.42L22.8506 724.666L102.378 544.181L182.195 363.029V362.971L262.013 181.79L341.859 0.579834" stroke="#862BFC" stroke-miterlimit="10"/>
<path d="M41.9847 725.42L42.3041 724.666L121.831 544.181L201.649 363.029V362.971L281.466 181.79L361.313 0.579834" stroke="#862BFC" stroke-miterlimit="10"/>
<path d="M63.1804 725.42L63.4997 724.666L143.027 544.181L222.844 363.029V362.971L302.662 181.79L382.508 0.579834" stroke="#862BFC" stroke-miterlimit="10"/>
<path d="M82.6339 725.42L82.9533 724.666L162.48 544.181L242.298 363.029V362.971L322.115 181.79L401.962 0.579834" stroke="#862BFC" stroke-miterlimit="10"/>
<path d="M103.83 725.42L104.149 724.666L183.676 544.181L263.494 363.029V362.971L343.311 181.79L423.158 0.579834" stroke="#862BFC" stroke-miterlimit="10"/>
<path d="M126.187 725.42L126.506 724.666L206.033 544.181L285.851 363.029V362.971L365.668 181.79L445.515 0.579834" stroke="#862BFC" stroke-miterlimit="10"/>
<path d="M147.382 725.42L147.702 724.666L227.229 544.181L307.046 363.029V362.971L386.864 181.79L466.71 0.579834" stroke="#862BFC" stroke-miterlimit="10"/>
<path d="M166.836 725.42L167.155 724.666L246.682 544.181L326.5 363.029V362.971L406.317 181.79L486.164 0.579834" stroke="#862BFC" stroke-miterlimit="10"/>
<path d="M188.031 725.42L188.351 724.666L267.878 544.181L347.695 363.029V362.971L427.513 181.79L507.36 0.579834" stroke="#862BFC" stroke-miterlimit="10"/>
<path d="M207.485 725.42L207.804 724.666L287.331 544.181L367.149 363.029V362.971L446.966 181.79L526.813 0.579834" stroke="#862BFC" stroke-miterlimit="10"/>
<path d="M228.68 725.42L229 724.666L308.527 544.181L388.345 363.029V362.971L468.162 181.79L548.009 0.579834" stroke="#862BFC" stroke-miterlimit="10"/>
<path d="M248.134 725.42L248.453 724.666L327.981 544.181L407.798 363.029V362.971L487.616 181.79L567.462 0.579834" stroke="#862BFC" stroke-miterlimit="10"/>
<path d="M269.33 725.42L269.649 724.666L349.176 544.181L428.994 363.029V362.971L508.811 181.79L588.658 0.579834" stroke="#862BFC" stroke-miterlimit="10"/>
<path d="M291.687 725.42L292.006 724.666L371.533 544.181L451.351 363.029V362.971L531.168 181.79L611.015 0.579834" stroke="#862BFC" stroke-miterlimit="10"/>
<path d="M312.882 725.42L313.202 724.666L392.729 544.181L472.546 363.029V362.971L552.364 181.79L632.21 0.579834" stroke="#862BFC" stroke-miterlimit="10"/>
<path d="M332.336 725.42L332.655 724.666L412.182 544.181L492 363.029V362.971L571.817 181.79L651.664 0.579834" stroke="#862BFC" stroke-miterlimit="10"/>
<path d="M353.531 725.42L353.851 724.666L433.378 544.181L513.196 363.029V362.971L593.013 181.79L672.86 0.579834" stroke="#862BFC" stroke-miterlimit="10"/>
<path d="M372.985 725.42L373.304 724.666L452.831 544.181L532.649 363.029V362.971L612.467 181.79L692.313 0.579834" stroke="#862BFC" stroke-miterlimit="10"/>
<path d="M394.181 725.42L394.5 724.666L474.027 544.181L553.845 363.029V362.971L633.662 181.79L713.509 0.579834" stroke="#862BFC" stroke-miterlimit="10"/>
<path d="M413.634 725.42L413.953 724.666L493.481 544.181L573.298 363.029V362.971L653.116 181.79L732.962 0.579834" stroke="#862BFC" stroke-miterlimit="10"/>
<path d="M434.83 725.42L435.149 724.666L514.676 544.181L594.494 363.029V362.971L674.311 181.79L754.158 0.579834" stroke="#862BFC" stroke-miterlimit="10"/>
<path d="M457.187 725.42L457.506 724.666L537.033 544.181L616.851 363.029V362.971L696.668 181.79L776.515 0.579834" stroke="#862BFC" stroke-miterlimit="10"/>
<path d="M478.382 725.42L478.702 724.666L558.229 544.181L638.046 363.029V362.971L717.864 181.79L797.711 0.579834" stroke="#862BFC" stroke-miterlimit="10"/>
<path d="M497.836 725.42L498.155 724.666L577.682 544.181L657.5 363.029V362.971L737.317 181.79L817.164 0.579834" stroke="#862BFC" stroke-miterlimit="10"/>
<path d="M519.032 725.42L519.351 724.666L598.878 544.181L678.696 363.029V362.971L758.513 181.79L838.36 0.579834" stroke="#862BFC" stroke-miterlimit="10"/>
<path d="M538.485 725.42L538.805 724.666L618.332 544.181L698.149 363.029V362.971L777.967 181.79L857.813 0.579834" stroke="#862BFC" stroke-miterlimit="10"/>
<path d="M559.681 725.42L560 724.666L639.527 544.181L719.345 363.029V362.971L799.162 181.79L879.009 0.579834" stroke="#862BFC" stroke-miterlimit="10"/>
<path d="M579.134 725.42L579.454 724.666L658.981 544.181L738.798 363.029V362.971L818.616 181.79L898.462 0.579834" stroke="#862BFC" stroke-miterlimit="10"/>
<path d="M600.33 725.42L600.649 724.666L680.176 544.181L759.994 363.029V362.971L839.811 181.79L919.658 0.579834" stroke="#862BFC" stroke-miterlimit="10"/>
<path d="M319.967 345.575V345.633" stroke="#862BFC" stroke-miterlimit="10"/>
<path d="M619.783 725.42L620.103 724.666L699.63 544.181L779.448 363.029V362.971L859.265 181.79L939.112 0.579834" stroke="#862BFC" stroke-miterlimit="10"/>
<path d="M640.979 725.42L641.298 724.666L720.826 544.181L800.643 363.029V362.971L880.461 181.79L960.307 0.579834" stroke="#862BFC" stroke-miterlimit="10"/>
<path d="M663.336 725.42L663.655 724.666L743.183 544.181L823 363.029V362.971L902.817 181.79L982.664 0.579834" stroke="#862BFC" stroke-miterlimit="10"/>
<path d="M684.532 725.42L684.851 724.666L764.378 544.181L844.196 363.029V362.971L924.013 181.79L1003.86 0.579834" stroke="#862BFC" stroke-miterlimit="10"/>
<path d="M703.985 725.42L704.305 724.666L783.832 544.181L863.649 363.029V362.971L943.467 181.79L1023.31 0.579834" stroke="#862BFC" stroke-miterlimit="10"/>
<path d="M725.181 725.42L725.5 724.666L805.027 544.181L884.845 363.029V362.971L964.662 181.79L1044.51 0.579834" stroke="#862BFC" stroke-miterlimit="10"/>
<path d="M744.634 725.42L744.954 724.666L824.481 544.181L904.298 363.029V362.971L984.116 181.79L1063.96 0.579834" stroke="#862BFC" stroke-miterlimit="10"/>
<path d="M765.83 725.42L766.149 724.666L845.677 544.181L925.494 363.029V362.971L1005.31 181.79L1085.16 0.579834" stroke="#862BFC" stroke-miterlimit="10"/>
<path d="M785.284 725.42L785.603 724.666L865.13 544.181L944.948 363.029V362.971L1024.76 181.79L1104.61 0.579834" stroke="#862BFC" stroke-miterlimit="10"/>
<path d="M806.479 725.42L806.799 724.666L886.326 544.181L966.143 363.029V362.971L1045.96 181.79L1125.81 0.579834" stroke="#862BFC" stroke-miterlimit="10"/>
<path d="M828.836 725.42L829.156 724.666L908.683 544.181L988.5 363.029V362.971L1068.32 181.79L1148.16 0.579834" stroke="#862BFC" stroke-miterlimit="10"/>
<path d="M850.032 725.42L850.351 724.666L929.878 544.181L1009.7 363.029V362.971L1089.51 181.79L1169.36 0.579834" stroke="#862BFC" stroke-miterlimit="10"/>
<path d="M869.485 725.42L869.805 724.666L949.332 544.181L1029.15 363.029V362.971L1108.97 181.79L1188.81 0.579834" stroke="#862BFC" stroke-miterlimit="10"/>
<path d="M890.681 725.42L891 724.666L970.528 544.181L1050.35 363.029V362.971L1130.16 181.79L1210.01 0.579834" stroke="#862BFC" stroke-miterlimit="10"/>
<path d="M910.134 725.42L910.454 724.666L989.981 544.181L1069.8 363.029V362.971L1149.62 181.79L1229.46 0.579834" stroke="#862BFC" stroke-miterlimit="10"/>
<path d="M931.33 725.42L931.65 724.666L1011.18 544.181L1090.99 363.029V362.971L1170.81 181.79L1250.66 0.579834" stroke="#862BFC" stroke-miterlimit="10"/>
<path d="M950.784 725.42L951.103 724.666L1030.63 544.181L1110.45 363.029V362.971L1190.27 181.79L1270.11 0.579834" stroke="#862BFC" stroke-miterlimit="10"/>
<path d="M971.979 725.42L972.299 724.666L1051.83 544.181L1131.64 363.029V362.971L1211.46 181.79L1291.31 0.579834" stroke="#862BFC" stroke-miterlimit="10"/>
<path d="M994.336 725.42L994.656 724.666L1074.18 544.181L1154 363.029V362.971L1233.82 181.79L1313.66 0.579834" stroke="#862BFC" stroke-miterlimit="10"/>
<path d="M857.116 345.575V345.633" stroke="#862BFC" stroke-miterlimit="10"/>
</svg>
